<svg class="svg-logo" version="1.1" xmlns="http://www.w3.org/2000/svg" xmlns:xlink="http://www.w3.org/1999/xlink" x="0px" y="0px" width="112px" height="54px" viewBox="0 0 112 54" xml:space="preserve">
                            <title>Strona główna</title>
                            <polygon fill="black" points="29.2,53 82.9,53 82.9,50.6 29.2,50.6 29.2,53 "></polygon>
                            <polygon fill="black" points="29.3,13.4 56.1,0 82.9,13.4 29.3,13.4 "></polygon>
                            <polygon fill="black" points="2.3,26.2 6.1,26.2 2,36.6 2,38.9 8.7,38.9 8.7,36.6 4.5,36.6 8.7,26.1 8.7,23.9 2.3,23.9 "></polygon>
                            <path fill="black" d="M20.6,23.9l-2.5,15h2.3l0.5-3.2h2.3l0.5,3.2h2.4l-2.5-15H20.6z M21.2,33.5l0.8-6.3h0.1l0.8,6.3H21.2z"></path>
                            <path fill="black" d="M39.4,23.6c-1.1,0-2,0.3-2.7,1c-0.6,0.7-1,1.6-1,2.8v7.7c0,1.4,0.3,2.4,0.9,3.1c0.6,0.7,1.5,1.1,2.7,1.1
                                c1.1,0,2-0.4,2.6-1.1c0.6-0.7,0.9-1.7,0.9-3v-1.6h-2.4v2c0,0.5-0.1,0.9-0.3,1.2c-0.2,0.3-0.5,0.4-0.9,0.4c-0.4,0-0.7-0.1-0.9-0.4 c-0.2-0.3-0.3-0.7-0.3-1.2v-8.4c0-0.5,0.1-0.9,0.3-1.2c0.2-0.3,0.5-0.4,0.9-0.4c0.4,0,0.7,0.1,0.9,0.4c0.2,0.3,0.3,0.6,0.3,1.2v1.6 h2.4v-1.4c0-1.2-0.3-2.1-0.9-2.8C41.3,23.9,40.4,23.6,39.4,23.6z"></path>
                            <polygon fill="black" points="58.1,30 55.7,30 55.7,23.9 53.5,23.9 53.5,38.9 55.7,38.9 55.7,32.2 58.1,32.2 58.1,38.9 60.4,38.9 60.4,23.9 58.1,23.9 "></polygon>
                            <path fill="black" d="M71.4,38.9h2.9c-0.1,0.1-0.1,0.2-0.2,0.4c-0.2,0.4-0.3,0.9-0.3,1.3c0,0.7,0.2,1.2,0.5,1.5c0.3,0.3,0.9,0.5,1.6,0.5h0.7v0
                                c0,0,0,0,0.1,0h0.7v-1.4h-0.7c-0.4,0-0.7-0.1-0.8-0.2c-0.2-0.2-0.2-0.4-0.2-0.8c0-0.4,0.1-0.8,0.3-1.2h1.5v-2.3h-3.7v-4.5h2.7V30 h-2.7v-3.9h3.7v-2.2h-6V38.9z"></path>
                            <polygon fill="black" points="86.5,26.1 88.9,26.1 88.9,38.9 91.2,38.9 91.2,26.1 93.6,26.1 93.6,23.9 86.5,23.9 "></polygon>
                            <path fill="black" d="M107.7,23.9h-3l-2.5,15h2.3l0.5-3.2h2.3l0.5,3.2h2.4L107.7,23.9z M105.3,33.5l0.8-6.3h0.1l0.8,6.3H105.3z"></path>
                        </svg>